<svg class="checkmark" width="32" height="32" viewBox="0 0 32 32" fill="none" xmlns="http://www.w3.org/2000/svg">
<path class="arrow" d="M20.0887 11.9935L14.0952 17.9865L11.9113 15.8026V15.8028C11.6694 15.5692 11.3222 15.4803 10.9978 15.5692C10.6736 15.6583 10.4202 15.9117 10.3312 16.2359C10.2423 16.5603 10.3312 16.9074 10.5648 17.1493L13.422 20.0065C13.6005 20.1851 13.8427 20.2854 14.0952 20.2854C14.3478 20.2854 14.5899 20.1851 14.7685 20.0065L21.4352 13.3398C21.6688 13.0979 21.7577 12.7507 21.6688 12.4263C21.5798 12.1021 21.3264 11.8487 21.0022 11.7596C20.6778 11.6708 20.3306 11.7596 20.0887 11.9933L20.0887 11.9935Z"/>
<circle class="circle" cx="16" cy="16" r="13" stroke-width="2"/>
</svg>
