<svg width="24" height="24" viewBox="0 0 24 24" fill="none" xmlns="http://www.w3.org/2000/svg">
<path d="M15.0666 8.99515L10.5714 13.4899L8.93348 11.852V11.8521C8.75204 11.6769 8.49168 11.6102 8.24837 11.6769C8.00523 11.7437 7.81519 11.9337 7.74837 12.1769C7.68172 12.4202 7.74837 12.6806 7.92359 12.862L10.0665 15.0049C10.2004 15.1388 10.382 15.2141 10.5714 15.2141C10.7608 15.2141 10.9424 15.1388 11.0764 15.0049L16.0764 10.0048C16.2516 9.82339 16.3183 9.56303 16.2516 9.31972C16.1848 9.07658 15.9948 8.88654 15.7516 8.81972C15.5083 8.75307 15.2479 8.81972 15.0665 8.99494L15.0666 8.99515Z" fill="black"/>
<circle cx="12" cy="12" r="9.5" stroke="black"/>
</svg>
