<svg width="24" height="24" viewBox="0 0 24 24" fill="none" xmlns="http://www.w3.org/2000/svg">
<path d="M6 8L18 8L16.9086 17.4585C16.7142 19.1436 16.617 19.9861 16.0482 20.4931C15.4794 21 14.6313 21 12.935 21L11.065 21C9.36873 21 8.52059 21 7.9518 20.4931C7.38302 19.9861 7.2858 19.1436 7.09136 17.4585L6 8Z" stroke="black"/>
<path d="M9.69231 11.75V15.0556M12.4615 15.0556V11.75M13.8462 15.0556V11.75M8.30769 15.0556V11.75M15.2308 15.0556V11.75M11.0769 15.0556V11.75M16.9958 10C17.4962 10 17.7464 10 17.8909 10.1277C18.0354 10.2554 18.0109 10.4549 17.9618 10.854L17.2931 16.2984C17.2521 16.6318 17.2316 16.7985 17.0929 16.8993C16.9542 17 16.7451 17 16.3271 17H7.67294C7.25485 17 7.0458 17 6.90708 16.8993C6.76836 16.7985 6.74789 16.6318 6.70693 16.2984L6.03816 10.854C5.98915 10.4549 5.96464 10.2554 6.10911 10.1277C6.25359 10 6.50378 10 7.00417 10L16.9958 10Z" stroke="black" stroke-linecap="round"/>
<path d="M6.4 6L7.11464 3.70293C7.24471 3.28485 7.63165 3 8.0695 3H15.9305C16.3684 3 16.7553 3.28485 16.8854 3.70293L17.6 6M6.4 6H6C5.44772 6 5 6.44772 5 7V7C5 7.55228 5.44772 8 6 8H18C18.5523 8 19 7.55228 19 7V7C19 6.44772 18.5523 6 18 6H17.6M6.4 6H17.6" stroke="black"/>
</svg>
