<svg width="32" height="32" viewBox="0 0 32 32" fill="none" xmlns="http://www.w3.org/2000/svg">
<path d="M8 11L24 11L22.4156 24.4674C22.2178 26.1485 22.1189 26.9891 21.5505 27.4946C20.9821 28 20.1358 28 18.443 28L13.557 28C11.8642 28 11.0179 28 10.4495 27.4946C9.88107 26.9891 9.78218 26.1485 9.5844 24.4674L8 11Z" stroke="black"/>
<path d="M12.9231 15.5V20.2222M16.6154 20.2222V15.5M18.4615 20.2222V15.5M11.0769 20.2222V15.5M20.3077 20.2222V15.5M14.7692 20.2222V15.5M22.6611 13C23.3283 13 23.6619 13 23.8545 13.1825C24.0471 13.3649 24.0145 13.6499 23.9491 14.2199L23.0574 21.9977C23.0028 22.474 22.9755 22.7121 22.7906 22.8561C22.6056 23 22.3269 23 21.7694 23H10.2306C9.67314 23 9.39441 23 9.20945 22.8561C9.02448 22.7121 8.99718 22.474 8.94258 21.9977L8.05088 14.2199C7.98553 13.6499 7.95285 13.3649 8.14549 13.1825C8.33812 13 8.67171 13 9.33889 13L22.6611 13Z" stroke="black" stroke-linecap="round"/>
<path d="M8.8 8.2L9.79278 4.72528C9.91544 4.29598 10.3078 4 10.7543 4H21.2457C21.6922 4 22.0846 4.29598 22.2072 4.72528L23.2 8.2M8.8 8.2H8C7.44772 8.2 7 8.64771 7 9.2V10C7 10.5523 7.44772 11 8 11H24C24.5523 11 25 10.5523 25 10V9.2C25 8.64772 24.5523 8.2 24 8.2H23.2M8.8 8.2H23.2" stroke="black"/>
</svg>
