<svg width="32" height="32" viewBox="0 0 32 32" fill="none" xmlns="http://www.w3.org/2000/svg">
<path d="M8 11L24 11L22.4156 24.4674C22.2178 26.1485 22.1189 26.9891 21.5505 27.4946C20.9821 28 20.1358 28 18.443 28L13.557 28C11.8642 28 11.0179 28 10.4495 27.4946C9.88107 26.9891 9.78218 26.1485 9.5844 24.4674L8 11Z" fill="#CDB4DB" stroke="black"/>
<path d="M22.6611 14C23.3283 14 23.6619 14 23.8545 14.146C24.0471 14.2919 24.0145 14.5199 23.9491 14.976L23.0574 21.1982C23.0028 21.5792 22.9755 21.7697 22.7906 21.8849C22.6056 22 22.3269 22 21.7694 22H10.2306C9.67314 22 9.39441 22 9.20945 21.8849C9.02448 21.7697 8.99718 21.5792 8.94258 21.1982L8.05088 14.976C7.98553 14.5199 7.95285 14.2919 8.14549 14.146C8.33812 14 8.67171 14 9.33889 14L22.6611 14Z" fill="#A2D2FF"/>
<path d="M12.9231 16V19.7778M16.6154 19.7778V16M18.4615 19.7778V16M11.0769 19.7778V16M20.3077 19.7778V16M14.7692 19.7778V16M22.6611 14C23.3283 14 23.6619 14 23.8545 14.146C24.0471 14.2919 24.0145 14.5199 23.9491 14.976L23.0574 21.1982C23.0028 21.5792 22.9755 21.7697 22.7906 21.8849C22.6056 22 22.3269 22 21.7694 22H10.2306C9.67314 22 9.39441 22 9.20945 21.8849C9.02448 21.7697 8.99718 21.5792 8.94258 21.1982L8.05088 14.976C7.98553 14.5199 7.95285 14.2919 8.14549 14.146C8.33812 14 8.67171 14 9.33889 14L22.6611 14Z" stroke="black" stroke-linecap="round"/>
<path d="M8.8 8.2L9.79278 4.72528C9.91544 4.29598 10.3078 4 10.7543 4H21.2457C21.6922 4 22.0846 4.29598 22.2072 4.72528L23.2 8.2H24C24.5523 8.2 25 8.64772 25 9.2V10C25 10.5523 24.5523 11 24 11H8C7.44772 11 7 10.5523 7 10V9.2C7 8.64771 7.44772 8.2 8 8.2H8.8Z" fill="#A2D2FF"/>
<path d="M8.8 8.2L9.79278 4.72528C9.91544 4.29598 10.3078 4 10.7543 4H21.2457C21.6922 4 22.0846 4.29598 22.2072 4.72528L23.2 8.2M8.8 8.2H8C7.44772 8.2 7 8.64771 7 9.2V10C7 10.5523 7.44772 11 8 11H24C24.5523 11 25 10.5523 25 10V9.2C25 8.64772 24.5523 8.2 24 8.2H23.2M8.8 8.2H23.2" stroke="black"/>
</svg>
