<svg width="80" height="24" viewBox="0 0 80 24" fill="none" xmlns="http://www.w3.org/2000/svg">
<path d="M2 8L14 8L12.9086 17.4585C12.7142 19.1436 12.617 19.9861 12.0482 20.4931C11.4794 21 10.6313 21 8.935 21L7.065 21C5.36873 21 4.52059 21 3.9518 20.4931C3.38302 19.9861 3.2858 19.1436 3.09136 17.4585L2 8Z" stroke="black"/>
<path d="M5.69231 11.75V15.0556M8.46154 15.0556V11.75M9.84615 15.0556V11.75M4.30769 15.0556V11.75M11.2308 15.0556V11.75M7.07692 15.0556V11.75M12.9958 10C13.4962 10 13.7464 10 13.8909 10.1277C14.0354 10.2554 14.0109 10.4549 13.9618 10.854L13.2931 16.2984C13.2521 16.6318 13.2316 16.7985 13.0929 16.8993C12.9542 17 12.7451 17 12.3271 17H3.67294C3.25485 17 3.0458 17 2.90708 16.8993C2.76836 16.7985 2.74789 16.6318 2.70693 16.2984L2.03816 10.854C1.98915 10.4549 1.96464 10.2554 2.10911 10.1277C2.25359 10 2.50378 10 3.00417 10L12.9958 10Z" stroke="black" stroke-linecap="round"/>
<path d="M2.4 6L3.11464 3.70293C3.24471 3.28485 3.63165 3 4.0695 3H11.9305C12.3684 3 12.7553 3.28485 12.8854 3.70293L13.6 6M2.4 6H2C1.44772 6 1 6.44772 1 7V7C1 7.55228 1.44772 8 2 8H14C14.5523 8 15 7.55228 15 7V7C15 6.44772 14.5523 6 14 6H13.6M2.4 6H13.6" stroke="black"/>
<path d="M18 8L30 8L28.9086 17.4585C28.7142 19.1436 28.617 19.9861 28.0482 20.4931C27.4794 21 26.6313 21 24.935 21L23.065 21C21.3687 21 20.5206 21 19.9518 20.4931C19.383 19.9861 19.2858 19.1436 19.0914 17.4585L18 8Z" stroke="black"/>
<path d="M21.6923 11.75V15.0556M24.4615 15.0556V11.75M25.8462 15.0556V11.75M20.3077 15.0556V11.75M27.2308 15.0556V11.75M23.0769 15.0556V11.75M28.9958 10C29.4962 10 29.7464 10 29.8909 10.1277C30.0354 10.2554 30.0109 10.4549 29.9618 10.854L29.2931 16.2984C29.2521 16.6318 29.2316 16.7985 29.0929 16.8993C28.9542 17 28.7451 17 28.3271 17H19.6729C19.2549 17 19.0458 17 18.9071 16.8993C18.7684 16.7985 18.7479 16.6318 18.7069 16.2984L18.0382 10.854C17.9891 10.4549 17.9646 10.2554 18.1091 10.1277C18.2536 10 18.5038 10 19.0042 10L28.9958 10Z" stroke="black" stroke-linecap="round"/>
<path d="M18.4 6L19.1146 3.70293C19.2447 3.28485 19.6316 3 20.0695 3H27.9305C28.3684 3 28.7553 3.28485 28.8854 3.70293L29.6 6M18.4 6H18C17.4477 6 17 6.44772 17 7V7C17 7.55228 17.4477 8 18 8H30C30.5523 8 31 7.55228 31 7V7C31 6.44772 30.5523 6 30 6H29.6M18.4 6H29.6" stroke="black"/>
<path d="M34 8L46 8L44.9086 17.4585C44.7142 19.1436 44.617 19.9861 44.0482 20.4931C43.4794 21 42.6313 21 40.935 21L39.065 21C37.3687 21 36.5206 21 35.9518 20.4931C35.383 19.9861 35.2858 19.1436 35.0914 17.4585L34 8Z" stroke="black"/>
<path d="M37.6923 11.75V15.0556M40.4615 15.0556V11.75M41.8462 15.0556V11.75M36.3077 15.0556V11.75M43.2308 15.0556V11.75M39.0769 15.0556V11.75M44.9958 10C45.4962 10 45.7464 10 45.8909 10.1277C46.0354 10.2554 46.0109 10.4549 45.9618 10.854L45.2931 16.2984C45.2521 16.6318 45.2316 16.7985 45.0929 16.8993C44.9542 17 44.7451 17 44.3271 17H35.6729C35.2549 17 35.0458 17 34.9071 16.8993C34.7684 16.7985 34.7479 16.6318 34.7069 16.2984L34.0382 10.854C33.9891 10.4549 33.9646 10.2554 34.1091 10.1277C34.2536 10 34.5038 10 35.0042 10L44.9958 10Z" stroke="black" stroke-linecap="round"/>
<path d="M34.4 6L35.1146 3.70293C35.2447 3.28485 35.6316 3 36.0695 3H43.9305C44.3684 3 44.7553 3.28485 44.8854 3.70293L45.6 6M34.4 6H34C33.4477 6 33 6.44772 33 7V7C33 7.55228 33.4477 8 34 8H46C46.5523 8 47 7.55228 47 7V7C47 6.44772 46.5523 6 46 6H45.6M34.4 6H45.6" stroke="black"/>
<path d="M50 8L62 8L60.9086 17.4585C60.7142 19.1436 60.617 19.9861 60.0482 20.4931C59.4794 21 58.6313 21 56.935 21L55.065 21C53.3687 21 52.5206 21 51.9518 20.4931C51.383 19.9861 51.2858 19.1436 51.0914 17.4585L50 8Z" stroke="black"/>
<path d="M53.6923 11.75V15.0556M56.4615 15.0556V11.75M57.8462 15.0556V11.75M52.3077 15.0556V11.75M59.2308 15.0556V11.75M55.0769 15.0556V11.75M60.9958 10C61.4962 10 61.7464 10 61.8909 10.1277C62.0354 10.2554 62.0109 10.4549 61.9618 10.854L61.2931 16.2984C61.2521 16.6318 61.2316 16.7985 61.0929 16.8993C60.9542 17 60.7451 17 60.3271 17H51.6729C51.2549 17 51.0458 17 50.9071 16.8993C50.7684 16.7985 50.7479 16.6318 50.7069 16.2984L50.0382 10.854C49.9891 10.4549 49.9646 10.2554 50.1091 10.1277C50.2536 10 50.5038 10 51.0042 10L60.9958 10Z" stroke="black" stroke-linecap="round"/>
<path d="M50.4 6L51.1146 3.70293C51.2447 3.28485 51.6316 3 52.0695 3H59.9305C60.3684 3 60.7553 3.28485 60.8854 3.70293L61.6 6M50.4 6H50C49.4477 6 49 6.44772 49 7V7C49 7.55228 49.4477 8 50 8H62C62.5523 8 63 7.55228 63 7V7C63 6.44772 62.5523 6 62 6H61.6M50.4 6H61.6" stroke="black"/>
<path d="M66 8L78 8L76.9086 17.4585C76.7142 19.1436 76.617 19.9861 76.0482 20.4931C75.4794 21 74.6313 21 72.935 21L71.065 21C69.3687 21 68.5206 21 67.9518 20.4931C67.383 19.9861 67.2858 19.1436 67.0914 17.4585L66 8Z" stroke="black"/>
<path d="M69.6923 11.75V15.0556M72.4615 15.0556V11.75M73.8462 15.0556V11.75M68.3077 15.0556V11.75M75.2308 15.0556V11.75M71.0769 15.0556V11.75M76.9958 10C77.4962 10 77.7464 10 77.8909 10.1277C78.0354 10.2554 78.0109 10.4549 77.9618 10.854L77.2931 16.2984C77.2521 16.6318 77.2316 16.7985 77.0929 16.8993C76.9542 17 76.7451 17 76.3271 17H67.6729C67.2549 17 67.0458 17 66.9071 16.8993C66.7684 16.7985 66.7479 16.6318 66.7069 16.2984L66.0382 10.854C65.9891 10.4549 65.9646 10.2554 66.1091 10.1277C66.2536 10 66.5038 10 67.0042 10L76.9958 10Z" stroke="black" stroke-linecap="round"/>
<path d="M66.4 6L67.1146 3.70293C67.2447 3.28485 67.6316 3 68.0695 3H75.9305C76.3684 3 76.7553 3.28485 76.8854 3.70293L77.6 6M66.4 6H66C65.4477 6 65 6.44772 65 7V7C65 7.55228 65.4477 8 66 8H78C78.5523 8 79 7.55228 79 7V7C79 6.44772 78.5523 6 78 6H77.6M66.4 6H77.6" stroke="black"/>
</svg>
