<svg width="16" height="20" viewBox="0 0 16 20" fill="none" xmlns="http://www.w3.org/2000/svg">
<path d="M2 6L14 6L12.9086 15.4585C12.7142 17.1436 12.617 17.9861 12.0482 18.4931C11.4794 19 10.6313 19 8.935 19L7.065 19C5.36873 19 4.52059 19 3.9518 18.4931C3.38302 17.9861 3.2858 17.1436 3.09136 15.4585L2 6Z" stroke="black"/>
<path d="M5.69231 9.75V13.0556M8.46154 13.0556V9.75M9.84615 13.0556V9.75M4.30769 13.0556V9.75M11.2308 13.0556V9.75M7.07692 13.0556V9.75M12.9958 8C13.4962 8 13.7464 8 13.8909 8.12772C14.0354 8.25544 14.0109 8.45494 13.9618 8.85396L13.2931 14.2984C13.2521 14.6318 13.2316 14.7985 13.0929 14.8993C12.9542 15 12.7451 15 12.3271 15H3.67294C3.25485 15 3.0458 15 2.90708 14.8993C2.76836 14.7985 2.74789 14.6318 2.70693 14.2984L2.03816 8.85396C1.98915 8.45494 1.96464 8.25544 2.10911 8.12772C2.25359 8 2.50378 8 3.00417 8L12.9958 8Z" stroke="black" stroke-linecap="round"/>
<path d="M2.4 4L3.11464 1.70293C3.24471 1.28485 3.63165 1 4.0695 1H11.9305C12.3684 1 12.7553 1.28485 12.8854 1.70293L13.6 4M2.4 4H2C1.44772 4 1 4.44772 1 5V5C1 5.55228 1.44772 6 2 6H14C14.5523 6 15 5.55228 15 5V5C15 4.44772 14.5523 4 14 4H13.6M2.4 4H13.6" stroke="black"/>
</svg>
