<svg width="24" height="24" viewBox="0 0 24 24" fill="none" xmlns="http://www.w3.org/2000/svg">
<g id="trash">
<path d="M13.5662 6H15.7338C16.5111 6 16.9912 6.84797 16.5913 7.5145L16.2913 8.0145C16.1106 8.3157 15.7851 8.5 15.4338 8.5H11.5H9C8.44772 8.5 8 8.05228 8 7.5C8 6.94772 8.44772 6.5 9 6.5H12.7L12.7087 6.4855C12.8894 6.1843 13.2149 6 13.5662 6Z" fill="#D9D9D9"/>
<path d="M11.5 8.5L12.7 6.5M11.5 8.5H9C8.44772 8.5 8 8.05228 8 7.5V7.5C8 6.94772 8.44772 6.5 9 6.5H12.7M11.5 8.5H15.4338C15.7851 8.5 16.1106 8.3157 16.2913 8.0145L16.5913 7.5145C16.9912 6.84797 16.5111 6 15.7338 6H13.5662C13.2149 6 12.8894 6.1843 12.7087 6.4855L12.7 6.5" stroke="#D9D9D9"/>
</g>
<g id="bin">
<path d="M6.36955 20.6521L4.67724 9.65206C4.58405 9.0463 5.05273 8.5 5.66561 8.5H7H10H12H13H15H18.3344C18.9473 8.5 19.416 9.0463 19.3228 9.65206L17.6305 20.6521C17.5554 21.1399 17.1357 21.5 16.6421 21.5H7.35792C6.86435 21.5 6.4446 21.1399 6.36955 20.6521Z" fill="#D9D9D9"/>
<path d="M10 3.5V4H12H14V3.5C14 2.94772 13.5523 2.5 13 2.5H11C10.4477 2.5 10 2.94772 10 3.5Z" fill="#D9D9D9"/>
<path d="M8 10L9 19.5M12 10V19.5M15 19.5L16 10M4 4H10M20 4H14M10 4V3.5C10 2.94772 10.4477 2.5 11 2.5H13C13.5523 2.5 14 2.94772 14 3.5V4M10 4H12H14M12 8.5H10H7H5.66561C5.05273 8.5 4.58405 9.0463 4.67724 9.65206L6.36955 20.6521C6.4446 21.1399 6.86435 21.5 7.35792 21.5H16.6421C17.1357 21.5 17.5554 21.1399 17.6305 20.6521L19.3228 9.65206C19.416 9.0463 18.9473 8.5 18.3344 8.5H15H13H12Z" stroke="black" stroke-linecap="round"/>
</g>
</svg>
