<svg width="24" height="24" viewBox="0 0 24 24" fill="none" xmlns="http://www.w3.org/2000/svg">
<path d="M11.5 8.5L12.7 6.5M16 8.5L16.5913 7.5145C16.9912 6.84797 16.5111 6 15.7338 6H13.5662C13.2149 6 12.8894 6.1843 12.7087 6.4855L12.7 6.5M8 8.5V7.5C8 6.94772 8.44772 6.5 9 6.5H12.7" stroke="#D9D9D9"/>
<path d="M8 10L9 19.5M12 10V19.5M15 19.5L16 10M4 4H10M20 4H14M10 4V3.5C10 2.94772 10.4477 2.5 11 2.5H13C13.5523 2.5 14 2.94772 14 3.5V4M10 4H12H14M12 8.5H10H7H5.66561C5.05273 8.5 4.58405 9.0463 4.67724 9.65206L6.36955 20.6521C6.4446 21.1399 6.86435 21.5 7.35792 21.5H16.6421C17.1357 21.5 17.5554 21.1399 17.6305 20.6521L19.3228 9.65206C19.416 9.0463 18.9473 8.5 18.3344 8.5H15H13H12Z" stroke="black" stroke-linecap="round"/>
</svg>
