<svg width="24" height="24" viewBox="0 0 24 24" fill="none" xmlns="http://www.w3.org/2000/svg">
<path d="M6 2.5H18C18.8284 2.5 19.5 3.17157 19.5 4V20C19.5 20.8284 18.8284 21.5 18 21.5H6C5.17157 21.5 4.5 20.8284 4.5 20V4C4.5 3.17157 5.17157 2.5 6 2.5Z" fill="black" stroke="black"/>
<path d="M7 6H17M7 10H17M7 14H10.5" stroke="#D9D9D9" stroke-linecap="round"/>
<path d="M12.6558 14.1152L16.0093 19.5876C16.1037 19.7417 16.238 19.8672 16.3981 19.951C17.0682 20.302 17.8704 19.8104 17.8619 19.054C17.8599 18.8734 17.809 18.6967 17.7146 18.5426L14.3611 13.0702L12.8526 12.5225L12.6558 14.1152Z" fill="#D9D9D9"/>
</svg>
