<svg width="24" height="24" viewBox="0 0 24 24" fill="none" xmlns="http://www.w3.org/2000/svg" class="largeFill">
<g id="largeFill">
<path id="items" d="M3.5 4.57143C3.5 4.39073 3.61046 4.13551 3.83727 3.9087C4.06408 3.68189 4.3193 3.57143 4.5 3.57143H10C10.1962 3.57143 10.4546 3.67819 10.6743 3.88418C10.895 4.09116 11 4.32508 11 4.5V10C11 10.1807 10.8895 10.4359 10.6627 10.6627C10.4359 10.8895 10.1807 11 10 11H4.5C4.31931 11 4.06409 10.8895 3.83727 10.6627C3.61046 10.4359 3.5 10.1807 3.5 10V4.57143ZM13 4.5C13 4.3193 13.1105 4.06408 13.3373 3.83727C13.5641 3.61046 13.8193 3.5 14 3.5H19.5C19.6807 3.5 19.9359 3.61046 20.1627 3.83727C20.3895 4.06409 20.5 4.31931 20.5 4.5V10C20.5 10.1807 20.3895 10.4359 20.1627 10.6627C19.9359 10.8895 19.6807 11 19.5 11H14C13.8193 11 13.5641 10.8895 13.3373 10.6627C13.1105 10.4359 13 10.1807 13 10V4.5ZM3.5 14C3.5 13.8193 3.61046 13.5641 3.83727 13.3373C4.06408 13.1105 4.3193 13 4.5 13H10C10.1807 13 10.4359 13.1105 10.6627 13.3373C10.8895 13.5641 11 13.8193 11 14V19.5C11 19.6807 10.8895 19.9359 10.6627 20.1627C10.4359 20.3895 10.1807 20.5 10 20.5H4.5C4.31931 20.5 4.06409 20.3895 3.83728 20.1627C3.61047 19.9359 3.5 19.6807 3.5 19.5L3.5 14ZM13 14C13 13.8193 13.1105 13.5641 13.3373 13.3373C13.5641 13.1105 13.8193 13 14 13H19.5C19.6807 13 19.9359 13.1105 20.1627 13.3373C20.3895 13.5641 20.5 13.8193 20.5 14V19.4286C20.5 19.6147 20.3845 19.891 20.1522 20.1379C19.9181 20.3866 19.6657 20.5 19.5 20.5H14C13.8193 20.5 13.5641 20.3895 13.3373 20.1627C13.1105 19.9359 13 19.6807 13 19.5V14Z" />
</g>
</svg>
