<svg width="24" height="24" viewBox="0 0 24 24" fill="none" xmlns="http://www.w3.org/2000/svg">
<path d="M4 13.5C4 12.9477 4.44772 12.5 5 12.5H6H7.5C8.05228 12.5 8.5 12.9477 8.5 13.5V15.5V17C8.5 17.5523 8.05228 18 7.5 18H5C4.44772 18 4 17.5523 4 17V13.5Z" fill="#D9D9D9"/>
<path d="M9.5 13.5C9.5 12.9477 9.94772 12.5 10.5 12.5H12H13.5C14.0523 12.5 14.5 12.9477 14.5 13.5V15.5V17C14.5 17.5523 14.0523 18 13.5 18H10.5C9.94772 18 9.5 17.5523 9.5 17V15.5V13.5Z" fill="#D9D9D9"/>
<path d="M15.5 13.5C15.5 12.9477 15.9477 12.5 16.5 12.5H18H19C19.5523 12.5 20 12.9477 20 13.5V17C20 17.5523 19.5523 18 19 18H16.5C15.9477 18 15.5 17.5523 15.5 17V15.5V13.5Z" fill="#D9D9D9"/>
<path d="M4 7C4 6.44772 4.44772 6 5 6H7.5C8.05228 6 8.5 6.44772 8.5 7V9V10.5C8.5 11.0523 8.05228 11.5 7.5 11.5H5C4.44772 11.5 4 11.0523 4 10.5V7Z" fill="#D9D9D9"/>
<path d="M9.5 7C9.5 6.44772 9.94772 6 10.5 6H13.5C14.0523 6 14.5 6.44772 14.5 7V9V10.5C14.5 11.0523 14.0523 11.5 13.5 11.5H12H10.5C9.94772 11.5 9.5 11.0523 9.5 10.5V9V7Z" fill="#D9D9D9"/>
<path d="M15.5 7C15.5 6.44772 15.9477 6 16.5 6H19C19.5523 6 20 6.44772 20 7V10.5C20 11.0523 19.5523 11.5 19 11.5H17.5H16.5C15.9477 11.5 15.5 11.0523 15.5 10.5V8.5V7Z" fill="#D9D9D9"/>
<rect x="2.5" y="4.5" width="19" height="15" rx="0.5" stroke="black"/>
</svg>
