<svg width="24" height="24" viewBox="0 0 24 24" fill="none" xmlns="http://www.w3.org/2000/svg">
<circle id="outline" cx="12" cy="12" r="9.5" stroke="black"/>
<path id="glass" fill-rule="evenodd" clip-rule="evenodd" d="M12.0727 11.7418C13.6578 10.541 14.1339 8.312 13.1085 6.53592C11.9979 4.61241 9.54674 3.94852 7.63357 5.05309C5.7204 6.15765 5.06974 8.61241 6.18028 10.5359C7.2057 12.312 9.37414 13.0142 11.2066 12.2418L11.4708 12.6994L11.7276 13.1442L12.0431 13.6907C11.8707 13.9899 11.8582 14.3703 12.0432 14.6909L13.3027 16.8723L14.5622 19.0538C14.8383 19.5321 15.4499 19.6959 15.9282 19.4198C16.4065 19.1437 16.5704 18.5321 16.2942 18.0538L15.0348 15.8723L13.7753 13.6909C13.5902 13.3703 13.2545 13.191 12.9092 13.1907L12.5936 12.6442L12.3369 12.1994L12.0727 11.7418Z" fill="#D9D9D9"/>
</svg>
