<svg width="24" height="24" viewBox="0 0 24 24" fill="none" xmlns="http://www.w3.org/2000/svg">
<path id="items" d="M5.5 6C5.5 5.72386 5.72386 5.5 6 5.5H10C10.2761 5.5 10.5 5.72386 10.5 6V10C10.5 10.2761 10.2761 10.5 10 10.5H6C5.72386 10.5 5.5 10.2761 5.5 10V6ZM12.5 6C12.5 5.72386 12.7239 5.5 13 5.5H18C18.2761 5.5 18.5 5.72386 18.5 6V13C18.5 13.2761 18.2761 13.5 18 13.5H13C12.7239 13.5 12.5 13.2761 12.5 13V6ZM5.5 13C5.5 12.7239 5.72386 12.5 6 12.5H10C10.2761 12.5 10.5 12.7239 10.5 13V18C10.5 18.2761 10.2761 18.5 10 18.5H6C5.72386 18.5 5.5 18.2761 5.5 18V13ZM12.5 16C12.5 15.7239 12.7239 15.5 13 15.5H18C18.2761 15.5 18.5 15.7239 18.5 16V18C18.5 18.2761 18.2761 18.5 18 18.5H13C12.7239 18.5 12.5 18.2761 12.5 18V16Z" stroke="#D9D9D9"/>
<rect id="outline" x="3.5" y="3.5" width="17" height="17" rx="0.5" stroke="black"/>
</svg>
