<svg width="2rem" height="2rem" version="1.1" viewBox="0 0 700 700" xmlns="http://www.w3.org/2000/svg">
 <path d="m589.87 495.13-114.66-114.66c35.074-41.461 52.77-94.871 49.379-149.07-3.3867-54.199-27.59-104.99-67.555-141.76-39.965-36.77-92.594-56.668-146.89-55.539-54.293 1.1289-106.05 23.203-144.45 61.602s-60.473 90.152-61.602 144.45c-1.1289 54.293 18.77 106.92 55.539 146.89 36.766 39.965 87.559 64.168 141.76 67.555 54.199 3.3906 107.61-14.305 149.07-49.379l114.66 114.66c4.4453 4.293 10.824 5.9258 16.785 4.293 5.957-1.6367 10.613-6.293 12.25-12.25 1.6328-5.9609 0-12.34-4.293-16.785zm-449.87-250.13c0-46.414 18.438-90.926 51.258-123.74 32.816-32.82 77.328-51.258 123.74-51.258s90.926 18.438 123.74 51.258c32.82 32.816 51.258 77.328 51.258 123.74s-18.438 90.926-51.258 123.74c-32.816 32.82-77.328 51.258-123.74 51.258-46.398-0.050781-90.879-18.504-123.69-51.312s-51.262-77.289-51.312-123.69z"/>
</svg>
