<svg width="24" height="24" viewBox="0 0 24 24" fill="none" xmlns="http://www.w3.org/2000/svg">
<rect x="5.5" y="5.5" width="3" height="4" rx="0.5" stroke="#D9D9D9"/>
<rect x="5.5" y="11.5" width="3" height="4" rx="0.5" stroke="#D9D9D9"/>
<rect x="10.5" y="11.5" width="3" height="4" rx="0.5" stroke="#D9D9D9"/>
<rect x="10.5" y="5.5" width="3" height="4" rx="0.5" stroke="#D9D9D9"/>
<rect x="15.5" y="11.5" width="3" height="4" rx="0.5" stroke="#D9D9D9"/>
<rect x="15.5" y="5.5" width="3" height="4" rx="0.5" stroke="#D9D9D9"/>
<path d="M5.5 19.5V18.1C5.5 17.7686 5.76863 17.5 6.1 17.5H7H7.9C8.23137 17.5 8.5 17.7686 8.5 18.1V19.5" stroke="#D9D9D9" stroke-linecap="square"/>
<path d="M10.5 19.5V18.1C10.5 17.7686 10.7686 17.5 11.1 17.5H12H12.9C13.2314 17.5 13.5 17.7686 13.5 18.1V19.5" stroke="#D9D9D9" stroke-linecap="square"/>
<path d="M15.5 19.5V18.1C15.5 17.7686 15.7686 17.5 16.1 17.5H17H17.9C18.2314 17.5 18.5 17.7686 18.5 18.1V19.5" stroke="#D9D9D9" stroke-linecap="square"/>
<rect x="3.5" y="3.5" width="17" height="17" rx="0.5" stroke="black"/>
</svg>
