<svg width="24" height="24" viewBox="0 0 24 24" fill="none" xmlns="http://www.w3.org/2000/svg">
<g id="items">
<path id="Vector" d="M5.5 19.5V18.1C5.5 17.7686 5.76863 17.5 6.1 17.5H7.9C8.23137 17.5 8.5 17.7686 8.5 18.1V19.5M10.5 19.5V18.1C10.5 17.7686 10.7686 17.5 11.1 17.5H12.9C13.2314 17.5 13.5 17.7686 13.5 18.1V19.5M15.5 19.5V18.1C15.5 17.7686 15.7686 17.5 16.1 17.5H17.9C18.2314 17.5 18.5 17.7686 18.5 18.1V19.5" stroke="#D9D9D9" stroke-linecap="square"/>
<path id="Vector_2" d="M6 5.5H8C8.27614 5.5 8.5 5.72386 8.5 6V9C8.5 9.27614 8.27614 9.5 8 9.5H6C5.72386 9.5 5.5 9.27614 5.5 9V6C5.5 5.72386 5.72386 5.5 6 5.5ZM6 11.5H8C8.27614 11.5 8.5 11.7239 8.5 12V15C8.5 15.2761 8.27614 15.5 8 15.5H6C5.72386 15.5 5.5 15.2761 5.5 15V12C5.5 11.7239 5.72386 11.5 6 11.5ZM11 11.5H13C13.2761 11.5 13.5 11.7239 13.5 12V15C13.5 15.2761 13.2761 15.5 13 15.5H11C10.7239 15.5 10.5 15.2761 10.5 15V12C10.5 11.7239 10.7239 11.5 11 11.5ZM11 5.5H13C13.2761 5.5 13.5 5.72386 13.5 6V9C13.5 9.27614 13.2761 9.5 13 9.5H11C10.7239 9.5 10.5 9.27614 10.5 9V6C10.5 5.72386 10.7239 5.5 11 5.5ZM16 11.5H18C18.2761 11.5 18.5 11.7239 18.5 12V15C18.5 15.2761 18.2761 15.5 18 15.5H16C15.7239 15.5 15.5 15.2761 15.5 15V12C15.5 11.7239 15.7239 11.5 16 11.5ZM16 5.5H18C18.2761 5.5 18.5 5.72386 18.5 6V9C18.5 9.27614 18.2761 9.5 18 9.5H16C15.7239 9.5 15.5 9.27614 15.5 9V6C15.5 5.72386 15.7239 5.5 16 5.5Z" stroke="#D9D9D9"/>
</g>
<rect id="outline" x="3.5" y="3.5" width="17" height="17" rx="0.5" stroke="black"/>
</svg>
