<svg width="24" height="24" viewBox="0 0 24 24" fill="none" xmlns="http://www.w3.org/2000/svg">
<g id="items">
<rect id="Rectangle 16" x="5.5" y="5.5" width="3" height="4" rx="0.5" fill="#D9D9D9" stroke="#D9D9D9"/>
<rect id="Rectangle 17" x="5.5" y="11.5" width="3" height="4" rx="0.5" fill="#D9D9D9" stroke="#D9D9D9"/>
<rect id="Rectangle 18" x="10.5" y="11.5" width="3" height="4" rx="0.5" fill="#D9D9D9" stroke="#D9D9D9"/>
<rect id="Rectangle 19" x="10.5" y="5.5" width="3" height="4" rx="0.5" fill="#D9D9D9" stroke="#D9D9D9"/>
<rect id="Rectangle 20" x="15.5" y="11.5" width="3" height="4" rx="0.5" fill="#D9D9D9" stroke="#D9D9D9"/>
<rect id="Rectangle 21" x="15.5" y="5.5" width="3" height="4" rx="0.5" fill="#D9D9D9" stroke="#D9D9D9"/>
<path id="Rectangle 23" d="M5.5 18C5.5 17.7239 5.72386 17.5 6 17.5H8C8.27614 17.5 8.5 17.7239 8.5 18V19.5H7H5.5V18Z" fill="#D9D9D9" stroke="#D9D9D9"/>
<path id="Rectangle 24" d="M10.5 18C10.5 17.7239 10.7239 17.5 11 17.5H13C13.2761 17.5 13.5 17.7239 13.5 18V19.5H12H10.5V18Z" fill="#D9D9D9" stroke="#D9D9D9"/>
<path id="Rectangle 25" d="M15.5 18C15.5 17.7239 15.7239 17.5 16 17.5H18C18.2761 17.5 18.5 17.7239 18.5 18V19.5H17H15.5V18Z" fill="#D9D9D9" stroke="#D9D9D9"/>
</g>
<rect id="outline_2" x="3.5" y="3.5" width="17" height="17" rx="0.5" stroke="black"/>
</svg>
