<svg width="24" height="24" viewBox="0 0 24 24" fill="none" xmlns="http://www.w3.org/2000/svg" class="smallFill">
<g id="smallFill">
<path id="items" d="M2.5 7C2.5 6.81931 2.61046 6.56409 2.83727 6.33727C3.06408 6.11046 3.3193 6 3.5 6L6.5 6C6.6807 6 6.93591 6.11046 7.16273 6.33727C7.38954 6.56409 7.5 6.81931 7.5 7V10C7.5 10.1807 7.38954 10.4359 7.16273 10.6627C6.93592 10.8895 6.6807 11 6.5 11H3.5C3.3193 11 3.06408 10.8895 2.83727 10.6627C2.61046 10.4359 2.5 10.1807 2.5 10V7ZM9.5 7C9.5 6.81931 9.61046 6.56409 9.83727 6.33727C10.0641 6.11046 10.3193 6 10.5 6L13.5 6C13.6807 6 13.9359 6.11046 14.1627 6.33727C14.3895 6.56409 14.5 6.81931 14.5 7V10C14.5 10.1807 14.3895 10.4359 14.1627 10.6627C13.9359 10.8895 13.6807 11 13.5 11H10.5C10.3193 11 10.0641 10.8895 9.83727 10.6627C9.61046 10.4359 9.5 10.1807 9.5 10V7ZM16.5 7C16.5 6.81931 16.6105 6.56409 16.8373 6.33727C17.0641 6.11046 17.3193 6 17.5 6L20.5 6C20.6807 6 20.9359 6.11046 21.1627 6.33727C21.3895 6.56409 21.5 6.81931 21.5 7V10C21.5 10.1807 21.3895 10.4359 21.1627 10.6627C20.9359 10.8895 20.6807 11 20.5 11H17.5C17.3193 11 17.0641 10.8895 16.8373 10.6627C16.6105 10.4359 16.5 10.1807 16.5 10V7ZM2.5 14C2.5 13.8193 2.61046 13.5641 2.83727 13.3373C3.06408 13.1105 3.3193 13 3.5 13L6.5 13C6.6807 13 6.93591 13.1105 7.16273 13.3373C7.38954 13.5641 7.5 13.8193 7.5 14V17C7.5 17.1807 7.38954 17.4359 7.16273 17.6627C6.93592 17.8895 6.6807 18 6.5 18H3.5C3.3193 18 3.06408 17.8895 2.83727 17.6627C2.61046 17.4359 2.5 17.1807 2.5 17V14ZM9.5 14C9.5 13.8193 9.61046 13.5641 9.83727 13.3373C10.0641 13.1105 10.3193 13 10.5 13L13.5 13C13.6807 13 13.9359 13.1105 14.1627 13.3373C14.3895 13.5641 14.5 13.8193 14.5 14V17C14.5 17.1807 14.3895 17.4359 14.1627 17.6627C13.9359 17.8895 13.6807 18 13.5 18H10.5C10.3193 18 10.0641 17.8895 9.83727 17.6627C9.61046 17.4359 9.5 17.1807 9.5 17V14ZM16.5 14C16.5 13.8193 16.6105 13.5641 16.8373 13.3373C17.0641 13.1105 17.3193 13 17.5 13L20.5 13C20.6807 13 20.9359 13.1105 21.1627 13.3373C21.3895 13.5641 21.5 13.8193 21.5 14V17C21.5 17.1807 21.3895 17.4359 21.1627 17.6627C20.9359 17.8895 20.6807 18 20.5 18H17.5C17.3193 18 17.0641 17.8895 16.8373 17.6627C16.6105 17.4359 16.5 17.1807 16.5 17V14Z" />
</g>
</svg>
