<svg class="upload" width="32" height="32" viewBox="0 0 32 32" fill="none" xmlns="http://www.w3.org/2000/svg">
<path class="arrow" d="M15.3819 3.24727L9.31144 9.05553C9.0958 9.26655 9.01273 9.57042 9.09303 9.85513C9.17352 10.1396 9.40528 10.3628 9.70276 10.4423C10.0004 10.5216 10.3197 10.4452 10.5429 10.2415L14.9998 6.03749L14.9997 22.2019C14.9983 22.5002 15.2822 22.7683 15.5521 22.9186C15.8221 23.069 16.1557 23.0705 16.4271 22.9227C16.6985 22.775 16.9983 22.5002 16.9997 22.2019L16.9998 6.03747L21.5555 10.2936C21.7176 10.4555 21.9414 10.548 22.176 10.5512C22.4108 10.5542 22.6367 10.4673 22.8035 10.3097C22.9702 10.1521 23.0634 9.93733 23.0625 9.71339C23.0615 9.48961 22.9664 9.27526 22.7982 9.11905L16.7009 3.24726C16.5375 3.08998 16.2319 3.03362 15.9998 3.03252C15.7678 3.03143 15.5467 3.09153 15.3819 3.24727Z"/>
<path class="bottom" d="M27.9167 19C27.6294 19 27.3537 19.1054 27.1506 19.2929C26.9475 19.4804 26.8333 19.7348 26.8333 20V26C26.8333 26.2652 26.7192 26.5196 26.5161 26.7071C26.3129 26.8946 26.0373 27 25.75 27H6.25C5.96272 27 5.68705 26.8946 5.48393 26.7071C5.28081 26.5196 5.16667 26.2652 5.16667 26V20C5.16667 19.6426 4.96016 19.3125 4.625 19.1339C4.28984 18.9554 3.87682 18.9554 3.54167 19.1339C3.20651 19.3125 3 19.6426 3 20V26C3 26.7958 3.34241 27.5587 3.95179 28.1214C4.56141 28.6839 5.38791 29 6.25 29H25.75C26.6121 29 27.4386 28.6839 28.0482 28.1214C28.6576 27.5587 29 26.7958 29 26V20C29 19.7348 28.8859 19.4804 28.6827 19.2929C28.4796 19.1054 28.2039 19 27.9167 19Z"/>
</svg>
