<svg width="24" height="24" viewBox="0 0 24 24" fill="none" xmlns="http://www.w3.org/2000/svg">
<path d="M19.3333 14.8576C19.1565 14.8576 18.9869 14.9328 18.8619 15.0667C18.7369 15.2007 18.6667 15.3824 18.6667 15.5718V19.8573C18.6667 20.0467 18.5964 20.2284 18.4714 20.3623C18.3464 20.4963 18.1768 20.5715 18 20.5715H6C5.82322 20.5715 5.65357 20.4963 5.52857 20.3623C5.40357 20.2284 5.33333 20.0467 5.33333 19.8573V15.5718C5.33333 15.3166 5.20625 15.0808 5 14.9532C4.79375 14.8257 4.53958 14.8257 4.33333 14.9532C4.12709 15.0808 4 15.3166 4 15.5718V19.8573C4 20.4256 4.21071 20.9706 4.58571 21.3725C4.96086 21.7743 5.46949 22 6 22H18C18.5305 22 19.0391 21.7743 19.4143 21.3725C19.7893 20.9706 20 20.4256 20 19.8573V15.5718C20 15.3824 19.9298 15.2007 19.8048 15.0667C19.6798 14.9328 19.5101 14.8576 19.3333 14.8576Z" fill="black"/>
<path d="M8 7.71515C8.17678 7.71515 8.34628 7.6399 8.47127 7.50582L11.3333 4.43968V17.0001C11.3333 17.2554 11.4604 17.4912 11.6667 17.6187C11.8729 17.7463 12.1271 17.7463 12.3333 17.6187C12.5396 17.4912 12.6667 17.2554 12.6667 17.0001V4.44376L15.5266 7.50782C15.653 7.64062 15.8229 7.71492 16 7.71492C16.1771 7.71492 16.347 7.64062 16.4734 7.50782C16.5982 7.37294 16.6683 7.19072 16.6683 7.00067C16.6683 6.81062 16.5982 6.6284 16.4734 6.49351L12.4734 2.20806C12.3476 2.07478 12.1778 2 12.0011 2C11.8241 2 11.6543 2.07477 11.5288 2.20806L7.52876 6.49351C7.40272 6.62727 7.33188 6.80934 7.33144 6.9994C7.33114 7.18944 7.40152 7.37167 7.52697 7.5059C7.65242 7.6403 7.82261 7.71563 8 7.71515Z" fill="black"/>
</svg>
